<svg xmlns="http://www.w3.org/2000/svg" xmlns:xlink="http://www.w3.org/1999/xlink" width="500" zoomAndPan="magnify" viewBox="0 0 375 374.999991" height="500" preserveAspectRatio="xMidYMid meet" version="1.0"><defs><clipPath id="73a6628945"><path d="M 88 88.84375 L 287 88.84375 L 287 286.09375 L 88 286.09375 Z M 88 88.84375 " clip-rule="nonzero"/></clipPath></defs><g clip-path="url(#73a6628945)"><path fill="#000000" d="M 286.195312 157.058594 C 286.011719 156.601562 287.445312 159.308594 263.230469 114.984375 L 263.230469 92.785156 C 263.230469 90.648438 261.496094 88.917969 259.359375 88.917969 L 116.054688 88.917969 C 113.917969 88.917969 112.183594 90.648438 112.183594 92.785156 L 112.183594 114.984375 C 87.9375 159.363281 89.277344 156.738281 89.074219 157.503906 C 89.035156 157.65625 89 157.804688 88.976562 158.015625 C 88.921875 158.453125 88.953125 157.148438 88.945312 173.699219 C 88.945312 180.9375 93.878906 187.042969 100.5625 188.851562 L 100.5625 282.148438 C 100.5625 284.285156 102.296875 286.015625 104.4375 286.015625 C 109.71875 286.015625 265.71875 286.015625 270.976562 286.015625 C 273.117188 286.015625 274.851562 284.285156 274.851562 282.148438 L 274.851562 188.851562 C 281.535156 187.039062 286.46875 180.933594 286.46875 173.699219 L 286.46875 158.480469 C 286.46875 157.984375 286.367188 157.492188 286.195312 157.058594 Z M 119.929688 96.648438 L 255.484375 96.648438 L 255.484375 112.105469 C 252.804688 112.105469 121.835938 112.105469 119.929688 112.105469 Z M 239.023438 162.347656 L 255 162.347656 L 255 173.699219 C 255 178.09375 251.417969 181.671875 247.011719 181.671875 C 242.609375 181.671875 239.023438 178.09375 239.023438 173.699219 Z M 229.984375 154.617188 L 214.777344 154.617188 L 209.679688 119.835938 L 219.789062 119.835938 Z M 207.554688 162.347656 L 207.554688 173.699219 C 207.554688 178.09375 203.972656 181.671875 199.566406 181.671875 C 195.164062 181.671875 191.578125 178.09375 191.578125 173.699219 L 191.578125 162.347656 Z M 183.832031 119.835938 L 183.832031 154.617188 L 168.5 154.617188 L 173.597656 119.835938 Z M 144.136719 162.347656 L 160.113281 162.347656 L 160.113281 173.699219 C 160.113281 178.09375 156.527344 181.671875 152.125 181.671875 C 147.71875 181.671875 144.136719 178.09375 144.136719 173.699219 Z M 137.359375 154.617188 L 122.46875 154.617188 L 137.757812 119.835938 L 147.554688 119.835938 Z M 96.691406 173.699219 L 96.691406 162.347656 C 102.332031 162.347656 107.125 162.347656 112.667969 162.347656 L 112.667969 173.699219 C 112.667969 178.09375 109.082031 181.671875 104.679688 181.671875 C 100.273438 181.671875 96.691406 178.09375 96.691406 173.699219 Z M 158.660156 278.285156 L 123.800781 278.285156 L 123.800781 222.25 C 123.800781 212.660156 131.621094 204.859375 141.230469 204.859375 C 150.839844 204.859375 158.660156 212.660156 158.660156 222.25 Z M 197.390625 278.285156 L 181.898438 278.285156 L 181.898438 262.828125 L 197.390625 262.828125 Z M 251.613281 278.285156 L 236.121094 278.285156 L 236.121094 262.828125 L 251.613281 262.828125 Z M 267.105469 278.285156 L 259.359375 278.285156 L 259.359375 235.773438 C 259.359375 233.640625 257.625 231.910156 255.484375 231.910156 C 253.347656 231.910156 251.613281 233.640625 251.613281 235.773438 L 251.613281 255.097656 L 232.246094 255.097656 C 230.109375 255.097656 228.375 256.828125 228.375 258.960938 L 228.375 278.285156 L 220.628906 278.285156 L 220.628906 247.367188 L 232.246094 247.367188 C 234.386719 247.367188 236.121094 245.636719 236.121094 243.503906 C 236.121094 241.371094 234.386719 239.640625 232.246094 239.640625 L 201.261719 239.640625 C 199.125 239.640625 197.390625 241.371094 197.390625 243.503906 C 197.390625 245.636719 199.125 247.367188 201.261719 247.367188 L 212.882812 247.367188 L 212.882812 278.285156 L 205.136719 278.285156 L 205.136719 258.960938 C 205.136719 256.828125 203.402344 255.097656 201.261719 255.097656 L 181.898438 255.097656 L 181.898438 235.773438 C 181.898438 233.640625 180.164062 231.910156 178.023438 231.910156 C 175.886719 231.910156 174.152344 233.640625 174.152344 235.773438 L 174.152344 278.285156 L 166.40625 278.285156 L 166.40625 222.25 C 166.40625 208.398438 155.113281 197.128906 141.230469 197.128906 C 127.347656 197.128906 116.054688 208.398438 116.054688 222.25 L 116.054688 278.285156 L 108.308594 278.285156 L 108.308594 188.972656 C 111.558594 188.203125 114.417969 186.429688 116.539062 183.996094 C 122.828125 191.199219 133.972656 191.199219 140.261719 183.996094 C 146.550781 191.199219 157.695312 191.199219 163.984375 183.996094 C 170.273438 191.199219 181.417969 191.199219 187.707031 183.996094 C 193.996094 191.199219 205.140625 191.199219 211.429688 183.996094 C 217.71875 191.199219 228.863281 191.199219 235.152344 183.996094 C 241.441406 191.199219 252.585938 191.199219 258.875 183.996094 C 260.996094 186.429688 263.855469 188.203125 267.105469 188.972656 Z M 261.40625 154.617188 L 246.113281 119.835938 L 257.058594 119.835938 L 276.070312 154.617188 C 271.011719 154.617188 266.484375 154.617188 261.40625 154.617188 Z M 261.40625 154.617188 " fill-opacity="1" fill-rule="nonzero"/></g><path fill="#000000" d="M 209.007812 197.128906 L 178.023438 197.128906 C 175.886719 197.128906 174.152344 198.859375 174.152344 200.992188 L 174.152344 220.316406 C 174.152344 222.449219 175.886719 224.179688 178.023438 224.179688 L 209.007812 224.179688 C 211.148438 224.179688 212.882812 222.449219 212.882812 220.316406 L 212.882812 200.992188 C 212.882812 198.859375 211.148438 197.128906 209.007812 197.128906 Z M 205.136719 216.453125 L 181.898438 216.453125 L 181.898438 204.859375 L 205.136719 204.859375 Z M 205.136719 216.453125 " fill-opacity="1" fill-rule="nonzero"/><path fill="#000000" d="M 255.484375 197.128906 L 224.5 197.128906 C 222.363281 197.128906 220.628906 198.859375 220.628906 200.992188 L 220.628906 220.316406 C 220.628906 222.449219 222.363281 224.179688 224.5 224.179688 L 255.484375 224.179688 C 257.625 224.179688 259.359375 222.449219 259.359375 220.316406 L 259.359375 200.992188 C 259.359375 198.859375 257.625 197.128906 255.484375 197.128906 Z M 251.613281 216.453125 L 228.375 216.453125 L 228.375 204.859375 L 251.613281 204.859375 Z M 251.613281 216.453125 " fill-opacity="1" fill-rule="nonzero"/></svg>